Gulax-Regular.ufo
<glyph name="exclam" format="2">
	<advance width="211"/>
	<unicode hex="0021"/>
	<note>
		exclam
	</note>
	<outline>
		<contour>
			<point x="59" y="620" type="line"/>
			<point x="67" y="178" type="line"/>
			<point x="144" y="178" type="line"/>
			<point x="152" y="620" type="line"/>
		</contour>
		<component base="period" xOffset="10"/>
	</outline>
</glyph>
<glyph name="ampersand" format="2">
	<advance width="657"/>
	<unicode hex="0026"/>
	<note>
		ampersand
	</note>
	<outline>
		<contour>
			<point x="291" y="292" type="curve" smooth="yes"/>
			<point x="389" y="292"/>
			<point x="469" y="361"/>
			<point x="469" y="457" type="curve" smooth="yes"/>
			<point x="469" y="553"/>
			<point x="389" y="630"/>
			<point x="291" y="630" type="curve" smooth="yes"/>
			<point x="192" y="630"/>
			<point x="113" y="553"/>
			<point x="113" y="457" type="curve" smooth="yes"/>
			<point x="113" y="361"/>
			<point x="192" y="292"/>
		</contour>
		<contour>
			<point x="291" y="371" type="curve" smooth="yes"/>
			<point x="244" y="371"/>
			<point x="208" y="407"/>
			<point x="208" y="457" type="curve" smooth="yes"/>
			<point x="208" y="507"/>
			<point x="244" y="540"/>
			<point x="291" y="540" type="curve" smooth="yes"/>
			<point x="337" y="540"/>
			<point x="374" y="507"/>
			<point x="374" y="457" type="curve" smooth="yes"/>
			<point x="374" y="407"/>
			<point x="337" y="371"/>
		</contour>
		<contour>
			<point x="512" y="283"/>
			<point x="438" y="371"/>
			<point x="283" y="371" type="curve" smooth="yes"/>
			<point x="164" y="371"/>
			<point x="69" y="282"/>
			<point x="69" y="166" type="curve" smooth="yes"/>
			<point x="69" y="0" type="line"/>
			<point x="204" y="0" type="line"/>
			<point x="205" y="90" type="line"/>
			<point x="164" y="90" type="line"/>
			<point x="164" y="166" type="line" smooth="yes"/>
			<point x="164" y="235"/>
			<point x="211" y="292"/>
			<point x="282" y="292" type="curve" smooth="yes"/>
			<point x="380" y="292"/>
			<point x="434" y="220"/>
			<point x="471" y="0" type="curve"/>
			<point x="564" y="0" type="line"/>
		</contour>
		<contour>
			<point x="204" y="0" type="line"/>
			<point x="233" y="0" type="line" smooth="yes"/>
			<point x="401" y="0"/>
			<point x="559" y="105"/>
			<point x="609" y="358" type="curve"/>
			<point x="522" y="376" type="line"/>
			<point x="489" y="167"/>
			<point x="374" y="90"/>
			<point x="226" y="90" type="curve" smooth="yes"/>
			<point x="205" y="90" type="line"/>
		</contour>
	</outline>
</glyph>
<glyph name="zero" format="2">
	<advance width="669"/>
	<unicode hex="0030"/>
	<note>
		zero
	</note>
	<outline>
		<contour>
			<point x="479" y="529" type="line"/>
			<point x="146" y="196" type="line"/>
			<point x="203" y="124" type="line"/>
			<point x="537" y="457" type="line"/>
		</contour>
		<contour>
			<point x="604" y="492"/>
			<point x="503" y="628"/>
			<point x="334" y="628" type="curve" smooth="yes"/>
			<point x="167" y="628"/>
			<point x="65" y="496"/>
			<point x="65" y="310" type="curve" smooth="yes"/>
			<point x="65" y="125"/>
			<point x="169" y="-9"/>
			<point x="334" y="-9" type="curve" smooth="yes"/>
			<point x="499" y="-9"/>
			<point x="604" y="125"/>
			<point x="604" y="310" type="curve" smooth="yes"/>
		</contour>
		<contour>
			<point x="447" y="540"/>
			<point x="509" y="453"/>
			<point x="509" y="310" type="curve" smooth="yes"/>
			<point x="509" y="168"/>
			<point x="450" y="79"/>
			<point x="334" y="79" type="curve" smooth="yes"/>
			<point x="222" y="79"/>
			<point x="160" y="168"/>
			<point x="160" y="310" type="curve" smooth="yes"/>
			<point x="160" y="442"/>
			<point x="216" y="540"/>
			<point x="334" y="540" type="curve" smooth="yes"/>
		</contour>
	</outline>
</glyph>
<glyph name="seven" format="2">
	<advance width="491"/>
	<unicode hex="0037"/>
	<note>
		seven
	</note>
	<outline>
		<contour>
			<point x="34" y="619" type="line"/>
			<point x="34" y="439" type="line"/>
			<point x="119" y="439" type="line"/>
			<point x="119" y="523" type="line"/>
			<point x="330" y="523" type="line"/>
			<point x="279" y="439"/>
			<point x="149" y="280"/>
			<point x="149" y="33" type="curve" smooth="yes"/>
			<point x="149" y="0" type="line"/>
			<point x="244" y="0" type="line"/>
			<point x="244" y="28" type="line" smooth="yes"/>
			<point x="244" y="243"/>
			<point x="343" y="401"/>
			<point x="444" y="526" type="curve"/>
			<point x="444" y="619" type="line"/>
		</contour>
	</outline>
</glyph>
<glyph name="colon" format="2">
	<advance width="191"/>
	<unicode hex="003A"/>
	<note>
		colon
	</note>
	<outline>
		<contour>
			<point x="146" y="179" type="line"/>
			<point x="45" y="179" type="line"/>
			<point x="45" y="77" type="line"/>
			<point x="146" y="77" type="line"/>
		</contour>
		<contour>
			<point x="146" y="396" type="line"/>
			<point x="45" y="396" type="line"/>
			<point x="45" y="294" type="line"/>
			<point x="146" y="294" type="line"/>
		</contour>
	</outline>
</glyph>
<glyph name="equal" format="2">
	<advance width="472"/>
	<unicode hex="003D"/>
	<note>
		equal
	</note>
	<outline>
		<contour>
			<point x="70" y="168" type="line"/>
			<point x="382" y="168" type="line"/>
			<point x="402" y="248" type="line"/>
			<point x="90" y="248" type="line"/>
		</contour>
		<contour>
			<point x="90" y="410" type="line"/>
			<point x="70" y="330" type="line"/>
			<point x="382" y="330" type="line"/>
			<point x="402" y="410" type="line"/>
		</contour>
	</outline>
</glyph>
<glyph name="F" format="2">
	<advance width="477"/>
	<unicode hex="0046"/>
	<note>
		F
	</note>
	<outline>
		<contour>
			<point x="160" y="318" type="line"/>
			<point x="160" y="431" type="line" smooth="yes"/>
			<point x="160" y="502"/>
			<point x="203" y="540"/>
			<point x="264" y="540" type="curve" smooth="yes"/>
			<point x="311" y="540"/>
			<point x="351" y="516"/>
			<point x="374" y="451" type="curve"/>
			<point x="462" y="492" type="line"/>
			<point x="426" y="584"/>
			<point x="350" y="630"/>
			<point x="265" y="630" type="curve" smooth="yes"/>
			<point x="137" y="630"/>
			<point x="65" y="551"/>
			<point x="65" y="438" type="curve" smooth="yes"/>
			<point x="65" y="0" type="line"/>
			<point x="160" y="0" type="line"/>
			<point x="160" y="228" type="line"/>
			<point x="357" y="228" type="line"/>
			<point x="377" y="318" type="line"/>
		</contour>
	</outline>
</glyph>
<glyph name="I" format="2">
	<advance width="241"/>
	<unicode hex="0049"/>
	<anchor x="116" y="0" name="ogonek"/>
	<anchor x="119" y="620" name="top"/>
	<note>
		I
	</note>
	<outline>
		<contour>
			<point x="168" y="620" type="line"/>
			<point x="73" y="620" type="line"/>
			<point x="73" y="0" type="line"/>
			<point x="168" y="0" type="line"/>
		</contour>
	</outline>
</glyph>
<glyph name="J" format="2">
	<advance width="497"/>
	<unicode hex="004A"/>
	<note>
		J
	</note>
	<outline>
		<contour>
			<point x="432" y="620" type="line"/>
			<point x="93" y="620" type="line"/>
			<point x="93" y="429" type="line"/>
			<point x="178" y="429" type="line"/>
			<point x="178" y="530" type="line"/>
			<point x="337" y="530" type="line"/>
			<point x="337" y="189" type="line" smooth="yes"/>
			<point x="337" y="118"/>
			<point x="294" y="80"/>
			<point x="233" y="80" type="curve" smooth="yes"/>
			<point x="186" y="80"/>
			<point x="138" y="99"/>
			<point x="115" y="165" type="curve"/>
			<point x="35" y="118" type="line"/>
			<point x="71" y="33"/>
			<point x="147" y="-10"/>
			<point x="232" y="-10" type="curve" smooth="yes"/>
			<point x="360" y="-10"/>
			<point x="432" y="69"/>
			<point x="432" y="182" type="curve" smooth="yes"/>
		</contour>
	</outline>
</glyph>
<glyph name="P" format="2">
	<advance width="495"/>
	<unicode hex="0050"/>
	<note>
		P
	</note>
	<outline>
		<contour>
			<point x="469" y="542"/>
			<point x="380" y="630"/>
			<point x="266" y="630" type="curve" smooth="yes"/>
			<point x="152" y="630"/>
			<point x="65" y="543"/>
			<point x="65" y="418" type="curve" smooth="yes"/>
			<point x="65" y="0" type="line"/>
			<point x="160" y="0" type="line"/>
			<point x="160" y="294" type="line"/>
			<point x="140" y="283" type="line"/>
			<point x="178" y="244"/>
			<point x="231" y="228"/>
			<point x="276" y="228" type="curve" smooth="yes"/>
			<point x="385" y="228"/>
			<point x="469" y="314"/>
			<point x="469" y="429" type="curve" smooth="yes"/>
		</contour>
		<contour>
			<point x="268" y="318" type="curve" smooth="yes"/>
			<point x="209" y="318"/>
			<point x="161" y="367"/>
			<point x="161" y="430" type="curve" smooth="yes"/>
			<point x="161" y="492"/>
			<point x="209" y="540"/>
			<point x="268" y="540" type="curve" smooth="yes"/>
			<point x="326" y="540"/>
			<point x="374" y="492"/>
			<point x="374" y="430" type="curve" smooth="yes"/>
			<point x="374" y="367"/>
			<point x="326" y="318"/>
		</contour>
	</outline>
</glyph>
<glyph name="Q" format="2">
	<advance width="699"/>
	<unicode hex="0051"/>
	<note>
		Q
	</note>
	<outline>
		<contour>
			<point x="656" y="89" type="line"/>
			<point x="490" y="125"/>
			<point x="366" y="297"/>
			<point x="396" y="542" type="curve"/>
			<point x="307" y="545" type="line"/>
			<point x="267" y="240"/>
			<point x="440" y="32"/>
			<point x="656" y="-12" type="curve"/>
		</contour>
		<contour>
			<point x="642" y="492"/>
			<point x="511" y="628"/>
			<point x="342" y="628" type="curve" smooth="yes"/>
			<point x="175" y="628"/>
			<point x="43" y="496"/>
			<point x="43" y="310" type="curve" smooth="yes"/>
			<point x="43" y="125"/>
			<point x="177" y="-9"/>
			<point x="342" y="-9" type="curve" smooth="yes"/>
			<point x="507" y="-9"/>
			<point x="642" y="115"/>
			<point x="642" y="310" type="curve" smooth="yes"/>
		</contour>
		<contour>
			<point x="455" y="538"/>
			<point x="547" y="453"/>
			<point x="547" y="310" type="curve" smooth="yes"/>
			<point x="547" y="168"/>
			<point x="458" y="81"/>
			<point x="342" y="81" type="curve" smooth="yes"/>
			<point x="230" y="81"/>
			<point x="138" y="168"/>
			<point x="138" y="310" type="curve" smooth="yes"/>
			<point x="138" y="442"/>
			<point x="224" y="538"/>
			<point x="342" y="538" type="curve" smooth="yes"/>
		</contour>
	</outline>
</glyph>
<glyph name="R" format="2">
	<advance width="520"/>
	<unicode hex="0052"/>
	<anchor x="256" y="620" name="top"/>
	<note>
		R
	</note>
	<outline>
		<contour>
			<point x="330" y="251" type="line"/>
			<point x="367" y="179"/>
			<point x="375" y="104"/>
			<point x="375" y="11" type="curve" smooth="yes"/>
			<point x="375" y="0" type="line"/>
			<point x="470" y="0" type="line"/>
			<point x="470" y="11" type="line" smooth="yes"/>
			<point x="470" y="122"/>
			<point x="458" y="217"/>
			<point x="406" y="303" type="curve"/>
		</contour>
		<contour>
			<point x="469" y="542"/>
			<point x="380" y="630"/>
			<point x="266" y="630" type="curve" smooth="yes"/>
			<point x="152" y="630"/>
			<point x="65" y="543"/>
			<point x="65" y="418" type="curve" smooth="yes"/>
			<point x="65" y="0" type="line"/>
			<point x="160" y="0" type="line"/>
			<point x="160" y="294" type="line"/>
			<point x="140" y="283" type="line"/>
			<point x="178" y="244"/>
			<point x="221" y="228"/>
			<point x="266" y="228" type="curve" smooth="yes"/>
			<point x="375" y="228"/>
			<point x="469" y="314"/>
			<point x="469" y="429" type="curve" smooth="yes"/>
		</contour>
		<contour>
			<point x="268" y="318" type="curve" smooth="yes"/>
			<point x="209" y="318"/>
			<point x="161" y="367"/>
			<point x="161" y="430" type="curve" smooth="yes"/>
			<point x="161" y="492"/>
			<point x="209" y="540"/>
			<point x="268" y="540" type="curve" smooth="yes"/>
			<point x="326" y="540"/>
			<point x="374" y="492"/>
			<point x="374" y="430" type="curve" smooth="yes"/>
			<point x="374" y="367"/>
			<point x="326" y="318"/>
		</contour>
	</outline>
</glyph>
<glyph name="S" format="2">
	<advance width="508"/>
	<unicode hex="0053"/>
	<anchor x="256" y="620" name="top"/>
	<note>
		S
	</note>
	<outline>
		<contour>
			<point x="151" y="377" type="curve"/>
			<point x="151" y="431" type="line" smooth="yes"/>
			<point x="151" y="502"/>
			<point x="194" y="540"/>
			<point x="255" y="540" type="curve" smooth="yes"/>
			<point x="302" y="540"/>
			<point x="342" y="516"/>
			<point x="365" y="451" type="curve"/>
			<point x="453" y="492" type="line"/>
			<point x="417" y="584"/>
			<point x="341" y="630"/>
			<point x="256" y="630" type="curve" smooth="yes"/>
			<point x="128" y="630"/>
			<point x="55" y="551"/>
			<point x="56" y="438" type="curve" smooth="yes"/>
			<point x="57" y="283" type="line"/>
			<point x="104" y="287" type="line" smooth="yes"/>
			<point x="225" y="297"/>
			<point x="343" y="273"/>
			<point x="343" y="145" type="curve" smooth="yes"/>
			<point x="343" y="90" type="line"/>
			<point x="55" y="90" type="line"/>
			<point x="55" y="0" type="line"/>
			<point x="438" y="0" type="line"/>
			<point x="438" y="151" type="line" smooth="yes"/>
			<point x="438" y="311"/>
			<point x="301" y="389"/>
		</contour>
	</outline>
</glyph>
<glyph name="X" format="2">
	<advance width="595"/>
	<unicode hex="0058"/>
	<note>
		X
	</note>
	<outline>
		<contour>
			<point x="386" y="353" type="curve"/>
			<point x="418" y="370"/>
			<point x="450" y="376"/>
			<point x="511" y="376" type="curve"/>
			<point x="511" y="620" type="line"/>
			<point x="416" y="620" type="line"/>
			<point x="416" y="453" type="line"/>
			<point x="383" y="450"/>
			<point x="338" y="434"/>
			<point x="298" y="411" type="curve"/>
			<point x="258" y="434"/>
			<point x="211" y="450"/>
			<point x="174" y="453" type="curve"/>
			<point x="174" y="620" type="line"/>
			<point x="80" y="620" type="line"/>
			<point x="80" y="376" type="line"/>
			<point x="141" y="376"/>
			<point x="175" y="370"/>
			<point x="209" y="353" type="curve"/>
			<point x="110" y="264"/>
			<point x="60" y="148"/>
			<point x="60" y="12" type="curve" smooth="yes"/>
			<point x="60" y="0" type="line"/>
			<point x="155" y="0" type="line"/>
			<point x="155" y="12" type="line" smooth="yes"/>
			<point x="155" y="133"/>
			<point x="205" y="237"/>
			<point x="299" y="303" type="curve"/>
			<point x="390" y="237"/>
			<point x="441" y="131"/>
			<point x="441" y="12" type="curve" smooth="yes"/>
			<point x="441" y="0" type="line"/>
			<point x="535" y="0" type="line"/>
			<point x="535" y="12" type="line" smooth="yes"/>
			<point x="535" y="145"/>
			<point x="482" y="268"/>
		</contour>
	</outline>
</glyph>
<glyph name="h" format="2">
	<advance width="501"/>
	<unicode hex="0068"/>
	<note>
		h
	</note>
	<outline>
		<contour>
			<point x="387" y="477" type="line" smooth="yes"/>
			<point x="297" y="477"/>
			<point x="214" y="462"/>
			<point x="143" y="402" type="curve"/>
			<point x="162" y="385" type="line"/>
			<point x="162" y="670" type="line"/>
			<point x="67" y="670" type="line"/>
			<point x="67" y="0" type="line"/>
			<point x="162" y="0" type="line"/>
			<point x="162" y="232" type="line" smooth="yes"/>
			<point x="162" y="315"/>
			<point x="200" y="384"/>
			<point x="339" y="383" type="curve"/>
			<point x="339" y="0" type="line"/>
			<point x="434" y="0" type="line"/>
			<point x="434" y="477" type="line"/>
		</contour>
	</outline>
</glyph>
<glyph name="i" format="2">
	<advance width="195"/>
	<unicode hex="0069"/>
	<anchor x="91" y="0" name="ogonek"/>
	<note>
		i
	</note>
	<outline>
		<contour>
			<point x="50" y="0" type="line"/>
			<point x="147" y="0" type="line"/>
			<point x="147" y="467" type="line"/>
			<point x="50" y="467" type="line"/>
		</contour>
		<contour>
			<point x="50" y="637" type="line"/>
			<point x="50" y="547" type="line"/>
			<point x="147" y="547" type="line"/>
			<point x="147" y="637" type="line"/>
		</contour>
	</outline>
</glyph>
<glyph name="k" format="2">
	<advance width="510"/>
	<unicode hex="006B"/>
	<note>
		k
	</note>
	<outline>
		<contour>
			<point x="346" y="239" type="line"/>
			<point x="409" y="270"/>
			<point x="438" y="348"/>
			<point x="438" y="460" type="curve" smooth="yes"/>
			<point x="438" y="465" type="line"/>
			<point x="337" y="465" type="line"/>
			<point x="337" y="429" type="line" smooth="yes"/>
			<point x="337" y="310"/>
			<point x="268" y="256"/>
			<point x="163" y="256" type="curve"/>
			<point x="163" y="670" type="line"/>
			<point x="70" y="670" type="line"/>
			<point x="70" y="0" type="line"/>
			<point x="163" y="0" type="line"/>
			<point x="163" y="179" type="line"/>
			<point x="340" y="179" type="line"/>
			<point x="366" y="0" type="line"/>
			<point x="460" y="0" type="line"/>
			<point x="426" y="251" type="line"/>
			<point x="323" y="251" type="line"/>
		</contour>
	</outline>
</glyph>
<glyph name="n" format="2">
	<advance width="501"/>
	<unicode hex="006E"/>
	<anchor x="392" y="0" name="ogonek"/>
	<anchor x="245" y="0" name="bottom"/>
	<anchor x="258" y="467" name="top"/>
	<note>
		n
	</note>
	<outline>
		<contour>
			<point x="387" y="477" type="line" smooth="yes"/>
			<point x="297" y="477"/>
			<point x="214" y="462"/>
			<point x="143" y="402" type="curve"/>
			<point x="162" y="385" type="line"/>
			<point x="162" y="467" type="line"/>
			<point x="67" y="467" type="line"/>
			<point x="67" y="0" type="line"/>
			<point x="162" y="0" type="line"/>
			<point x="162" y="232" type="line" smooth="yes"/>
			<point x="162" y="315"/>
			<point x="200" y="384"/>
			<point x="339" y="383" type="curve"/>
			<point x="339" y="0" type="line"/>
			<point x="434" y="0" type="line"/>
			<point x="434" y="477" type="line"/>
		</contour>
	</outline>
</glyph>
<glyph name="y" format="2">
	<advance width="509"/>
	<unicode hex="0079"/>
	<anchor x="255" y="467" name="top"/>
	<note>
		y
	</note>
	<outline>
		<contour>
			<point x="347" y="235" type="line" smooth="yes"/>
			<point x="347" y="152"/>
			<point x="309" y="83"/>
			<point x="170" y="84" type="curve"/>
			<point x="170" y="467" type="line"/>
			<point x="75" y="467" type="line"/>
			<point x="75" y="-10" type="line"/>
			<point x="122" y="-10" type="line" smooth="yes"/>
			<point x="204" y="-10"/>
			<point x="280" y="2"/>
			<point x="347" y="50" type="curve"/>
			<point x="347" y="-92" type="line"/>
			<point x="87" y="-92" type="line"/>
			<point x="67" y="-182" type="line"/>
			<point x="442" y="-182" type="line"/>
			<point x="442" y="467" type="line"/>
			<point x="347" y="467" type="line"/>
		</contour>
	</outline>
</glyph>
<glyph name="cent" format="2">
	<advance width="438"/>
	<unicode hex="00A2"/>
	<outline>
		<contour>
			<point x="153" y="337" type="line" smooth="yes"/>
			<point x="153" y="376"/>
			<point x="181" y="407"/>
			<point x="220" y="407" type="curve" smooth="yes"/>
			<point x="246" y="407"/>
			<point x="282" y="393"/>
			<point x="296" y="340" type="curve"/>
			<point x="383" y="384" type="line"/>
			<point x="345" y="468"/>
			<point x="286" y="497"/>
			<point x="224" y="497" type="curve" smooth="yes"/>
			<point x="132" y="497"/>
			<point x="56" y="440"/>
			<point x="56" y="329" type="curve" smooth="yes"/>
			<point x="56" y="114" type="line"/>
			<point x="55" y="113" type="line"/>
			<point x="359" y="113" type="line"/>
			<point x="359" y="203" type="line"/>
			<point x="153" y="203" type="line"/>
		</contour>
		<contour>
			<point x="179" y="620" type="line"/>
			<point x="179" y="452" type="line"/>
			<point x="259" y="452" type="line"/>
			<point x="259" y="620" type="line"/>
		</contour>
		<contour>
			<point x="179" y="188" type="line"/>
			<point x="179" y="0" type="line"/>
			<point x="259" y="0" type="line"/>
			<point x="259" y="188" type="line"/>
		</contour>
	</outline>
</glyph>
<glyph name="yen" format="2">
	<advance width="548"/>
	<unicode hex="00A5"/>
	<outline>
		<contour>
			<point x="122" y="259" type="line"/>
			<point x="122" y="189" type="line"/>
			<point x="426" y="189" type="line"/>
			<point x="426" y="259" type="line"/>
		</contour>
		<contour>
			<point x="122" y="149" type="line"/>
			<point x="122" y="79" type="line"/>
			<point x="426" y="79" type="line"/>
			<point x="426" y="149" type="line"/>
		</contour>
		<component base="Y"/>
	</outline>
</glyph>
<glyph name="brokenbar" format="2">
	<advance width="168"/>
	<unicode hex="00A6"/>
	<outline>
		<contour>
			<point x="41" y="255" type="line"/>
			<point x="41" y="-53" type="line"/>
			<point x="121" y="-53" type="line"/>
			<point x="121" y="255" type="line"/>
		</contour>
		<contour>
			<point x="41" y="653" type="line"/>
			<point x="41" y="345" type="line"/>
			<point x="121" y="345" type="line"/>
			<point x="121" y="653" type="line"/>
		</contour>
	</outline>
</glyph>
<glyph name="copyright" format="2">
	<advance width="768"/>
	<unicode hex="00A9"/>
	<outline>
		<contour>
			<point x="384" y="666" type="curve" smooth="yes"/>
			<point x="179" y="662"/>
			<point x="43" y="527"/>
			<point x="43" y="311" type="curve" smooth="yes"/>
			<point x="43" y="95"/>
			<point x="179" y="-41"/>
			<point x="384" y="-44" type="curve" smooth="yes"/>
			<point x="588" y="-41"/>
			<point x="725" y="95"/>
			<point x="725" y="311" type="curve" smooth="yes"/>
			<point x="725" y="527"/>
			<point x="588" y="662"/>
		</contour>
		<contour>
			<point x="384" y="37" type="curve" smooth="yes"/>
			<point x="224" y="39"/>
			<point x="124" y="139"/>
			<point x="124" y="311" type="curve" smooth="yes"/>
			<point x="124" y="483"/>
			<point x="224" y="583"/>
			<point x="384" y="585" type="curve" smooth="yes"/>
			<point x="544" y="583"/>
			<point x="644" y="483"/>
			<point x="644" y="311" type="curve" smooth="yes"/>
			<point x="644" y="139"/>
			<point x="544" y="39"/>
		</contour>
		<contour>
			<point x="387" y="408" type="curve" smooth="yes"/>
			<point x="421" y="408"/>
			<point x="452" y="391"/>
			<point x="466" y="332" type="curve"/>
			<point x="550" y="369" type="line"/>
			<point x="523" y="457"/>
			<point x="457" y="493"/>
			<point x="379" y="493" type="curve" smooth="yes"/>
			<point x="295" y="493"/>
			<point x="223" y="441"/>
			<point x="223" y="332" type="curve" smooth="yes"/>
			<point x="223" y="290" type="line" smooth="yes"/>
			<point x="223" y="180"/>
			<point x="295" y="129"/>
			<point x="379" y="129" type="curve" smooth="yes"/>
			<point x="457" y="129"/>
			<point x="523" y="166"/>
			<point x="550" y="254" type="curve"/>
			<point x="466" y="290" type="line"/>
			<point x="452" y="231"/>
			<point x="421" y="213"/>
			<point x="387" y="213" type="curve" smooth="yes"/>
			<point x="341" y="213"/>
			<point x="314" y="242"/>
			<point x="314" y="298" type="curve" smooth="yes"/>
			<point x="314" y="323" type="line" smooth="yes"/>
			<point x="314" y="379"/>
			<point x="341" y="408"/>
		</contour>
	</outline>
</glyph>
<glyph name="paragraph" format="2">
	<advance width="569"/>
	<unicode hex="00B6"/>
	<outline>
		<contour>
			<point x="347" y="620" type="line"/>
			<point x="253" y="620" type="line"/>
			<point x="253" y="-180" type="line"/>
			<point x="347" y="-180" type="line"/>
			<point x="347" y="617" type="line"/>
		</contour>
		<contour>
			<point x="416" y="620" type="line"/>
			<point x="416" y="-182" type="line"/>
			<point x="496" y="-182" type="line"/>
			<point x="496" y="620" type="line"/>
		</contour>
		<contour>
			<point x="84" y="562" type="curve" smooth="yes"/>
			<point x="46" y="524"/>
			<point x="26" y="473"/>
			<point x="26" y="419" type="curve" smooth="yes"/>
			<point x="26" y="366"/>
			<point x="46" y="315"/>
			<point x="84" y="277" type="curve" smooth="yes"/>
			<point x="122" y="239"/>
			<point x="173" y="218"/>
			<point x="227" y="218" type="curve" smooth="yes"/>
			<point x="264" y="218"/>
			<point x="300" y="229"/>
			<point x="333" y="249" type="curve"/>
			<point x="333" y="620" type="line"/>
			<point x="227" y="620" type="line"/>
			<point x="173" y="620"/>
			<point x="122" y="600"/>
		</contour>
	</outline>
</glyph>
<glyph name="cedilla" format="2">
	<advance width="444"/>
	<unicode hex="00B8"/>
	<anchor x="198" y="0" name="_bottom"/>
	<note>
		cedilla
	</note>
	<outline>
		<contour>
			<point x="173" y="31" type="line"/>
			<point x="112" y="-105" type="line"/>
			<point x="202" y="-138" type="line"/>
			<point x="243" y="6" type="line"/>
		</contour>
	</outline>
</glyph>
<glyph name="eth" format="2">
	<advance width="507"/>
	<unicode hex="00F0"/>
	<outline>
		<contour>
			<point x="116" y="457" type="curve" smooth="yes"/>
			<point x="67" y="457" type="line"/>
			<point x="67" y="275" type="line" smooth="yes"/>
			<point x="67" y="64"/>
			<point x="160" y="0"/>
			<point x="376" y="0" type="curve" smooth="yes"/>
			<point x="422" y="0" type="line"/>
			<point x="422" y="430" type="line" smooth="yes"/>
			<point x="422" y="563"/>
			<point x="326" y="676"/>
			<point x="121" y="670" type="curve"/>
			<point x="121" y="589" type="line"/>
			<point x="265" y="599"/>
			<point x="340" y="526"/>
			<point x="340" y="439" type="curve" smooth="yes"/>
			<point x="340" y="402" type="line"/>
			<point x="288" y="448"/>
			<point x="191" y="457"/>
		</contour>
		<contour>
			<point x="328" y="90" type="line"/>
			<point x="189" y="94"/>
			<point x="162" y="146"/>
			<point x="162" y="275" type="curve" smooth="yes"/>
			<point x="162" y="360" type="line"/>
			<point x="328" y="349"/>
			<point x="328" y="313"/>
			<point x="328" y="243" type="curve" smooth="yes"/>
		</contour>
		<contour>
			<point x="363" y="664" type="line"/>
			<point x="218" y="520" type="line"/>
			<point x="259" y="477" type="line"/>
			<point x="409" y="615" type="line"/>
		</contour>
	</outline>
</glyph>
<glyph name="oslash" format="2">
	<advance width="538"/>
	<unicode hex="00F8"/>
	<anchor x="269" y="467" name="top"/>
	<outline>
		<contour>
			<point x="359" y="403" type="line"/>
			<point x="98" y="142" type="line"/>
			<point x="165" y="75" type="line"/>
			<point x="426" y="336" type="line"/>
		</contour>
		<contour>
			<point x="261" y="476" type="curve" smooth="yes"/>
			<point x="127" y="476"/>
			<point x="17" y="367"/>
			<point x="17" y="233" type="curve" smooth="yes"/>
			<point x="17" y="99"/>
			<point x="127" y="-10"/>
			<point x="261" y="-10" type="curve" smooth="yes"/>
			<point x="395" y="-10"/>
			<point x="505" y="99"/>
			<point x="505" y="233" type="curve" smooth="yes"/>
			<point x="505" y="368"/>
			<point x="395" y="476"/>
		</contour>
		<contour>
			<point x="261" y="84" type="curve" smooth="yes"/>
			<point x="179" y="84"/>
			<point x="112" y="151"/>
			<point x="112" y="233" type="curve" smooth="yes"/>
			<point x="112" y="316"/>
			<point x="179" y="382"/>
			<point x="261" y="382" type="curve" smooth="yes"/>
			<point x="343" y="382"/>
			<point x="410" y="316"/>
			<point x="410" y="233" type="curve" smooth="yes"/>
			<point x="410" y="151"/>
			<point x="342" y="84"/>
		</contour>
	</outline>
</glyph>
<glyph name="thorn" format="2">
	<advance width="507"/>
	<unicode hex="00FE"/>
	<outline>
		<contour>
			<point x="162" y="670" type="line"/>
			<point x="67" y="670" type="line"/>
			<point x="67" y="-191" type="line"/>
			<point x="162" y="-191" type="line"/>
			<point x="162" y="27" type="line"/>
			<point x="170" y="21"/>
			<point x="178" y="15"/>
			<point x="187" y="10" type="curve" smooth="yes"/>
			<point x="210" y="-2"/>
			<point x="236" y="-10"/>
			<point x="267" y="-10" type="curve" smooth="yes"/>
			<point x="268" y="-10"/>
			<point x="268" y="-10"/>
			<point x="268" y="-10" type="curve"/>
			<point x="269" y="-10" type="line" smooth="yes"/>
			<point x="369" y="-10"/>
			<point x="440" y="72"/>
			<point x="440" y="172" type="curve" smooth="yes"/>
			<point x="440" y="467" type="line"/>
			<point x="162" y="467" type="line"/>
		</contour>
		<contour>
			<point x="345" y="167" type="line" smooth="yes"/>
			<point x="345" y="119"/>
			<point x="302" y="81"/>
			<point x="254" y="81" type="curve" smooth="yes"/>
			<point x="206" y="81"/>
			<point x="162" y="119"/>
			<point x="162" y="167" type="curve" smooth="yes"/>
			<point x="162" y="377" type="line"/>
			<point x="345" y="377" type="line"/>
		</contour>
	</outline>
</glyph>
<glyph name="circumflex" format="2">
	<advance width="378"/>
	<unicode hex="02C6"/>
	<anchor x="189" y="467" name="_top"/>
	<note>
		circumflex
	</note>
	<outline>
		<contour>
			<point x="63" y="584" type="line"/>
			<point x="63" y="511" type="line"/>
			<point x="189" y="561" type="line"/>
			<point x="315" y="511" type="line"/>
			<point x="315" y="584" type="line"/>
			<point x="189" y="637" type="line"/>
		</contour>
	</outline>
</glyph>
<glyph name="ring" format="2">
	<advance width="600"/>
	<unicode hex="02DA"/>
	<anchor x="187" y="467" name="_top"/>
	<outline>
		<contour>
			<point x="187" y="501" type="curve" smooth="yes"/>
			<point x="238" y="501"/>
			<point x="280" y="543"/>
			<point x="280" y="595" type="curve" smooth="yes"/>
			<point x="280" y="646"/>
			<point x="238" y="688"/>
			<point x="187" y="688" type="curve" smooth="yes"/>
			<point x="135" y="688"/>
			<point x="93" y="646"/>
			<point x="93" y="595" type="curve" smooth="yes"/>
			<point x="93" y="543"/>
			<point x="135" y="501"/>
		</contour>
		<contour>
			<point x="187" y="560" type="curve" smooth="yes"/>
			<point x="167" y="560"/>
			<point x="152" y="575"/>
			<point x="152" y="595" type="curve" smooth="yes"/>
			<point x="152" y="614"/>
			<point x="167" y="629"/>
			<point x="187" y="629" type="curve" smooth="yes"/>
			<point x="206" y="629"/>
			<point x="221" y="614"/>
			<point x="221" y="595" type="curve" smooth="yes"/>
			<point x="221" y="575"/>
			<point x="206" y="560"/>
		</contour>
	</outline>
</glyph>
<glyph name="macroncomb" format="2">
	<advance width="357"/>
	<unicode hex="0304"/>
	<anchor x="179" y="467" name="_top"/>
	<outline>
		<contour>
			<point x="71" y="606" type="line"/>
			<point x="71" y="541" type="line"/>
			<point x="287" y="541" type="line"/>
			<point x="287" y="606" type="line"/>
		</contour>
	</outline>
</glyph>
<glyph name="brevecomb" format="2">
	<advance width="437"/>
	<unicode hex="0306"/>
	<anchor x="219" y="467" name="_top"/>
	<outline>
		<contour>
			<point x="219" y="533" type="curve" smooth="yes"/>
			<point x="284" y="533"/>
			<point x="337" y="587"/>
			<point x="337" y="652" type="curve"/>
			<point x="267" y="652" type="line"/>
			<point x="267" y="625"/>
			<point x="245" y="603"/>
			<point x="219" y="603" type="curve" smooth="yes"/>
			<point x="192" y="603"/>
			<point x="170" y="625"/>
			<point x="170" y="652" type="curve"/>
			<point x="100" y="652" type="line"/>
			<point x="100" y="587"/>
			<point x="154" y="533"/>
		</contour>
	</outline>
</glyph>
<glyph name="dotaccentcomb" format="2">
	<advance width="289"/>
	<unicode hex="0307"/>
	<anchor x="145" y="467" name="_top"/>
	<outline>
		<contour>
			<point x="100" y="637" type="line"/>
			<point x="100" y="548" type="line"/>
			<point x="189" y="548" type="line"/>
			<point x="189" y="637" type="line"/>
		</contour>
	</outline>
</glyph>
<glyph name="hungarumlautcomb" format="2">
	<advance width="600"/>
	<unicode hex="030B"/>
	<anchor x="302" y="467" name="_top"/>
	<outline>
		<contour>
			<point x="230" y="683" type="line"/>
			<point x="217" y="545" type="line"/>
			<point x="274" y="545" type="line"/>
			<point x="311" y="683" type="line"/>
		</contour>
		<contour>
			<point x="375" y="683" type="line"/>
			<point x="320" y="545" type="line"/>
			<point x="384" y="545" type="line"/>
			<point x="463" y="683" type="line"/>
		</contour>
	</outline>
</glyph>
<glyph name="caroncomb" format="2">
	<advance width="378"/>
	<unicode hex="030C"/>
	<anchor x="189" y="467" name="_top"/>
	<outline>
		<contour>
			<point x="63" y="574" type="line"/>
			<point x="189" y="521" type="line"/>
			<point x="315" y="574" type="line"/>
			<point x="315" y="647" type="line"/>
			<point x="189" y="597" type="line"/>
			<point x="63" y="647" type="line"/>
		</contour>
	</outline>
</glyph>
<glyph name="commaaccentcomb" format="2">
	<advance width="600"/>
	<unicode hex="0326"/>
	<anchor x="269" y="0" name="_bottom"/>
	<outline>
		<contour>
			<point x="312" y="-50" type="curve"/>
			<point x="223" y="-50" type="line"/>
			<point x="222" y="-108"/>
			<point x="204" y="-167"/>
			<point x="166" y="-216" type="curve"/>
			<point x="232" y="-249" type="line"/>
			<point x="279" y="-192"/>
			<point x="308" y="-127"/>
		</contour>
	</outline>
</glyph>
<glyph name="bullet" format="2">
	<advance width="432"/>
	<unicode hex="2022"/>
	<outline>
		<contour>
			<point x="216" y="175" type="curve" smooth="yes"/>
			<point x="283" y="175"/>
			<point x="337" y="229"/>
			<point x="337" y="296" type="curve" smooth="yes"/>
			<point x="337" y="363"/>
			<point x="283" y="417"/>
			<point x="216" y="417" type="curve" smooth="yes"/>
			<point x="149" y="417"/>
			<point x="95" y="363"/>
			<point x="95" y="296" type="curve" smooth="yes"/>
			<point x="95" y="229"/>
			<point x="149" y="175"/>
		</contour>
	</outline>
</glyph>
<glyph name="ellipsis" format="2">
	<advance width="565"/>
	<unicode hex="2026"/>
	<note>
		ellipsis
	</note>
	<outline>
		<contour>
			<point x="45" y="0" type="line"/>
			<point x="144" y="0" type="line"/>
			<point x="144" y="99" type="line"/>
			<point x="45" y="99" type="line"/>
		</contour>
		<contour>
			<point x="421" y="99" type="line"/>
			<point x="421" y="0" type="line"/>
			<point x="520" y="0" type="line"/>
			<point x="520" y="99" type="line"/>
		</contour>
		<contour>
			<point x="233" y="0" type="line"/>
			<point x="332" y="0" type="line"/>
			<point x="332" y="99" type="line"/>
			<point x="233" y="99" type="line"/>
		</contour>
	</outline>
</glyph>
<glyph name="Euro" format="2">
	<advance width="554"/>
	<unicode hex="20AC"/>
	<outline>
		<contour>
			<point x="372" y="264" type="line"/>
			<point x="34" y="264" type="line"/>
			<point x="20" y="184" type="line"/>
			<point x="352" y="184" type="line"/>
		</contour>
		<contour>
			<point x="408" y="409" type="line"/>
			<point x="40" y="409" type="line"/>
			<point x="26" y="329" type="line"/>
			<point x="389" y="329" type="line"/>
		</contour>
		<contour>
			<point x="453" y="576" type="line"/>
			<point x="412" y="611"/>
			<point x="351" y="629"/>
			<point x="295" y="629" type="curve" smooth="yes"/>
			<point x="167" y="629"/>
			<point x="95" y="550"/>
			<point x="95" y="437" type="curve" smooth="yes"/>
			<point x="95" y="0" type="line"/>
			<point x="436" y="0" type="line"/>
			<point x="436" y="90" type="line"/>
			<point x="190" y="90" type="line"/>
			<point x="190" y="430" type="line" smooth="yes"/>
			<point x="190" y="501"/>
			<point x="233" y="539"/>
			<point x="294" y="539" type="curve" smooth="yes"/>
			<point x="335" y="539"/>
			<point x="396" y="516"/>
			<point x="425" y="466" type="curve"/>
		</contour>
	</outline>
</glyph>
<glyph name="VTF" format="2">
	<advance width="1404"/>
	<unicode hex="E002"/>
	<note>
		vtf
	</note>
	<outline>
		<contour>
			<point x="592" y="52" type="line"/>
			<point x="932" y="52" type="line"/>
			<point x="932" y="360" type="line"/>
			<point x="1045" y="360" type="line"/>
			<point x="1045" y="433" type="line"/>
			<point x="932" y="433" type="line"/>
			<point x="932" y="452" type="line" smooth="yes"/>
			<point x="932" y="496"/>
			<point x="957" y="518"/>
			<point x="992" y="518" type="curve" smooth="yes"/>
			<point x="1013" y="518"/>
			<point x="1041" y="505"/>
			<point x="1051" y="478" type="curve"/>
			<point x="1123" y="514" type="line"/>
			<point x="1092" y="567"/>
			<point x="1042" y="590"/>
			<point x="992" y="590" type="curve" smooth="yes"/>
			<point x="908" y="590"/>
			<point x="855" y="535"/>
			<point x="855" y="445" type="curve" smooth="yes"/>
			<point x="855" y="433" type="line"/>
			<point x="780" y="433" type="line" smooth="yes"/>
			<point x="739" y="433"/>
			<point x="703" y="427"/>
			<point x="669" y="419" type="curve"/>
			<point x="669" y="482" type="line"/>
			<point x="592" y="482" type="line"/>
			<point x="592" y="388" type="line"/>
			<point x="536" y="355"/>
			<point x="491" y="305"/>
			<point x="445" y="232" type="curve" smooth="yes"/>
			<point x="405" y="164"/>
			<point x="380" y="129"/>
			<point x="314" y="129" type="curve"/>
			<point x="314" y="434" type="line"/>
			<point x="237" y="434" type="line"/>
			<point x="237" y="52" type="line"/>
			<point x="276" y="52" type="line"/>
			<point x="314" y="52" type="line" smooth="yes"/>
			<point x="427" y="52"/>
			<point x="471" y="127"/>
			<point x="512" y="192" type="curve" smooth="yes"/>
			<point x="538" y="237"/>
			<point x="564" y="271"/>
			<point x="592" y="296" type="curve"/>
		</contour>
		<contour>
			<point x="669" y="125" type="line"/>
			<point x="669" y="343" type="line"/>
			<point x="705" y="355"/>
			<point x="746" y="360"/>
			<point x="795" y="360" type="curve" smooth="yes"/>
			<point x="855" y="360" type="line"/>
			<point x="855" y="125" type="line"/>
		</contour>
		<contour>
			<point x="100" y="670" type="line"/>
			<point x="1304" y="670" type="line"/>
			<point x="1304" y="-50" type="line"/>
			<point x="100" y="-50" type="line"/>
		</contour>
		<contour>
			<point x="1144" y="146" type="line"/>
			<point x="1050" y="146" type="line"/>
			<point x="1050" y="52" type="line"/>
			<point x="1144" y="52" type="line"/>
		</contour>
	</outline>
</glyph>
